<svg width="26" height="26" viewBox="0 0 26 26" fill="none" xmlns="http://www.w3.org/2000/svg">
<path d="M15.0573 24.0498V19.4168C15.0573 18.8024 14.8133 18.2132 14.3788 17.7788C13.9444 17.3443 13.3552 17.1003 12.7408 17.1003C12.1264 17.1003 11.5372 17.3443 11.1028 17.7788C10.6684 18.2132 10.4243 18.8024 10.4243 19.4168V24.0498" stroke="#99A1AF" stroke-width="2.3165" stroke-linecap="round" stroke-linejoin="round"/>
<path d="M19.6902 10.1508L23.6827 12.1476C23.875 12.2438 24.0368 12.3915 24.15 12.5744C24.2631 12.7573 24.3231 12.9681 24.3232 13.1831V21.7333C24.3232 22.3477 24.0791 22.9369 23.6447 23.3713C23.2103 23.8057 22.6211 24.0498 22.0067 24.0498H3.4747C2.86033 24.0498 2.27112 23.8057 1.83669 23.3713C1.40226 22.9369 1.1582 22.3477 1.1582 21.7333V13.1831C1.15832 12.9681 1.2183 12.7573 1.33142 12.5744C1.44455 12.3915 1.60635 12.2438 1.79871 12.1476L5.7912 10.1508" stroke="#99A1AF" stroke-width="2.3165" stroke-linecap="round" stroke-linejoin="round"/>
<path d="M19.6899 4.35956V24.0498" stroke="#99A1AF" stroke-width="2.3165" stroke-linecap="round" stroke-linejoin="round"/>
<path d="M3.47461 5.51784L11.7051 1.40258C12.0267 1.24191 12.3812 1.15826 12.7406 1.15826C13.1 1.15826 13.4545 1.24191 13.7761 1.40258L22.0066 5.51784" stroke="#99A1AF" stroke-width="2.3165" stroke-linecap="round" stroke-linejoin="round"/>
<path d="M5.79102 4.35956V24.0498" stroke="#99A1AF" stroke-width="2.3165" stroke-linecap="round" stroke-linejoin="round"/>
<path d="M12.7408 11.309C14.0202 11.309 15.0573 10.2719 15.0573 8.99252C15.0573 7.71316 14.0202 6.67603 12.7408 6.67603C11.4614 6.67603 10.4243 7.71316 10.4243 8.99252C10.4243 10.2719 11.4614 11.309 12.7408 11.309Z" stroke="#99A1AF" stroke-width="2.3165" stroke-linecap="round" stroke-linejoin="round"/>
</svg>
