<svg width="25" height="25" viewBox="0 0 25 25" fill="none" xmlns="http://www.w3.org/2000/svg">
<path d="M1.1582 21.0063C1.1582 19.5022 1.75567 18.0598 2.81916 16.9963C3.88266 15.9329 5.32506 15.3354 6.82907 15.3354H18.1708C19.6748 15.3354 21.1172 15.9329 22.1807 16.9963C23.2442 18.0598 23.8417 19.5022 23.8417 21.0063C23.8417 21.7583 23.5429 22.4795 23.0112 23.0112C22.4794 23.543 21.7582 23.8417 21.0062 23.8417H3.99364C3.24163 23.8417 2.52043 23.543 1.98868 23.0112C1.45694 22.4795 1.1582 21.7583 1.1582 21.0063Z" stroke="#99A1AF" stroke-width="2.3165" stroke-linejoin="round"/>
<path d="M12.4997 9.66457C14.8487 9.66457 16.7529 7.76037 16.7529 5.41142C16.7529 3.06246 14.8487 1.15826 12.4997 1.15826C10.1508 1.15826 8.24658 3.06246 8.24658 5.41142C8.24658 7.76037 10.1508 9.66457 12.4997 9.66457Z" stroke="#99A1AF" stroke-width="2.3165"/>
</svg>
