<svg width="28" height="23" viewBox="0 0 28 23" fill="none" xmlns="http://www.w3.org/2000/svg">
<path d="M14.7846 20.6583C15.1106 20.8959 15.49 21.0549 15.8915 21.1221C16.2931 21.1892 16.7053 21.1627 17.0942 21.0445C17.4831 20.9264 17.8376 20.7202 18.1284 20.4427C18.4193 20.1653 18.6381 19.8246 18.767 19.4488C18.8958 19.073 18.931 18.6728 18.8695 18.2812C18.8081 17.8896 18.6518 17.5178 18.4135 17.1965C18.1753 16.8751 17.8619 16.6134 17.4992 16.4329C17.1366 16.2524 16.7349 16.1583 16.3275 16.1583H0.898926" stroke="#99A1AF" stroke-width="2.3165" stroke-linecap="round" stroke-linejoin="round"/>
<path d="M21.0489 5.55826C21.3813 5.08099 21.8215 4.70313 22.3276 4.46058C22.8337 4.21803 23.389 4.11883 23.9408 4.17241C24.4925 4.22599 25.0224 4.43056 25.4801 4.7667C25.9378 5.10285 26.3081 5.5594 26.5558 6.09302C26.8036 6.62663 26.9205 7.21959 26.8956 7.81558C26.8707 8.41158 26.7048 8.99083 26.4135 9.49832C26.1223 10.0058 25.7154 10.4247 25.2316 10.7152C24.7477 11.0058 24.2029 11.1583 23.6489 11.1583H0.898926" stroke="#99A1AF" stroke-width="2.3165" stroke-linecap="round" stroke-linejoin="round"/>
<path d="M10.8262 1.65826C11.1489 1.42059 11.5244 1.26162 11.9219 1.19446C12.3194 1.1273 12.7275 1.15387 13.1124 1.27198C13.4974 1.39009 13.8483 1.59637 14.1362 1.8738C14.4241 2.15124 14.6408 2.49189 14.7683 2.8677C14.8958 3.2435 14.9306 3.64369 14.8698 4.03529C14.809 4.42688 14.6543 4.79868 14.4185 5.12004C14.1826 5.4414 13.8724 5.70311 13.5134 5.88362C13.1544 6.06413 12.7568 6.15826 12.3535 6.15826H0.898926" stroke="#99A1AF" stroke-width="2.3165" stroke-linecap="round" stroke-linejoin="round"/>
</svg>
