<svg width="24" height="25" viewBox="0 0 24 25" fill="none" xmlns="http://www.w3.org/2000/svg">
<path d="M15.0574 23.1645V13.8985C15.0574 13.5913 14.9354 13.2967 14.7182 13.0795C14.5009 12.8623 14.2063 12.7402 13.8992 12.7402H9.26616C8.95897 12.7402 8.66437 12.8623 8.44715 13.0795C8.22994 13.2967 8.10791 13.5913 8.10791 13.8985V23.1645" stroke="#9810FA" stroke-width="2.3165" stroke-linecap="round" stroke-linejoin="round"/>
<path d="M1.1582 10.4237C1.15812 10.0867 1.23156 9.75375 1.37339 9.44808C1.51522 9.14241 1.72204 8.87137 1.9794 8.65385L10.0871 1.70551C10.5053 1.35214 11.035 1.15826 11.5824 1.15826C12.1299 1.15826 12.6596 1.35214 13.0777 1.70551L21.1855 8.65385C21.4429 8.87137 21.6497 9.14241 21.7915 9.44808C21.9333 9.75375 22.0068 10.0867 22.0067 10.4237V20.8479C22.0067 21.4623 21.7626 22.0515 21.3282 22.4859C20.8938 22.9203 20.3046 23.1644 19.6902 23.1644H3.4747C2.86033 23.1644 2.27112 22.9203 1.83669 22.4859C1.40226 22.0515 1.1582 21.4623 1.1582 20.8479V10.4237Z" stroke="#9810FA" stroke-width="2.3165" stroke-linecap="round" stroke-linejoin="round"/>
</svg>
