<svg width="190" height="85" viewBox="0 0 190 85" fill="none" xmlns="http://www.w3.org/2000/svg">
<path d="M165.037 35.97C158.369 35.97 152.1 38.5031 147.385 43.1026C144.323 46.09 142.155 49.7168 141.011 53.6739V53.2796H128.346V54.5695C127.282 50.2647 125.024 46.3147 121.733 43.1036C117.018 38.5041 110.749 35.971 104.081 35.971C97.4134 35.971 91.1445 38.5041 86.4293 43.1036C82.9166 46.5302 80.5804 50.7994 79.6165 55.4426V53.2796H66.9318V41.6734H66.886C67.1256 33.9025 70.3393 26.6316 75.9996 21.1102C81.8871 15.3671 89.7148 12.2048 98.0407 12.2048V12.1967H189.8V0H97.9166V0.00508238C92.0667 0.0203295 86.3897 1.1476 81.0389 3.35437C75.837 5.50015 71.1677 8.57193 67.1579 12.4823C63.1492 16.3927 60.0002 20.9485 57.8005 26.0228C55.6456 30.9933 54.4952 36.2526 54.3764 41.6714H54.2659V53.2775H42.1148C43.0745 49.8825 43.5934 46.3818 43.6653 42.8129C43.7497 42.2356 43.7945 41.645 43.7945 41.0453V35.9639H31.1297V43.5153C30.741 51.0494 27.5482 58.0783 22.0411 63.4514C16.1536 69.1945 8.32584 72.3568 0 72.3568V84.5545C5.89373 84.5545 11.6134 83.4272 17.0018 81.2042C22.2036 79.0584 26.873 75.9866 30.8827 72.0762C32.9449 70.0646 34.7778 67.8802 36.3732 65.5443H54.2659V84.6988H66.9308V65.5443H79.6154V65.1998C80.5783 69.844 82.9145 74.1122 86.4282 77.5387C91.1434 82.1383 97.4123 84.6714 104.08 84.6714C110.748 84.6714 117.017 82.1383 121.732 77.5387C125.158 74.1966 127.465 70.0544 128.47 65.5433H140.646C141.652 70.0534 143.958 74.1966 147.384 77.5387C152.099 82.1383 158.368 84.6714 165.036 84.6714C171.704 84.6714 177.973 82.1383 182.688 77.5387C187.403 72.9392 190 66.8241 190 60.3197C190 53.8152 187.403 47.7001 182.688 43.1006C177.973 38.501 171.704 35.968 165.036 35.968L165.037 35.97ZM104.081 72.4747C97.2112 72.4747 91.6217 67.0223 91.6217 60.3207C91.6217 53.6191 97.2112 48.1667 104.081 48.1667C110.951 48.1667 116.541 53.6191 116.541 60.3207C116.541 67.0223 110.951 72.4747 104.081 72.4747ZM165.037 72.4747C158.167 72.4747 152.577 67.0223 152.577 60.3207C152.577 53.6191 158.167 48.1667 165.037 48.1667C171.907 48.1667 177.497 53.6191 177.497 60.3207C177.497 67.0223 171.907 72.4747 165.037 72.4747Z" fill="#4018AD"/>
<path d="M107.908 29.6138C110.908 26.6134 110.908 21.7489 107.908 18.7485C104.907 15.7482 100.043 15.7482 97.0425 18.7485C94.0421 21.7489 94.0421 26.6134 97.0425 29.6138C100.043 32.6141 104.907 32.6141 107.908 29.6138Z" fill="#4018AD"/>
</svg>
